<svg width="110" height="18" viewBox="0 0 110 18" fill="none" xmlns="http://www.w3.org/2000/svg">
<path d="M8.323 12.4729C8.39767 12.4729 8.463 12.5033 8.519 12.5639L9.058 13.1449C8.64733 13.6209 8.148 13.9919 7.56 14.2579C6.97667 14.5239 6.26967 14.6569 5.439 14.6569C4.72033 14.6569 4.067 14.5333 3.479 14.2859C2.891 14.0339 2.38933 13.6839 1.974 13.2359C1.55867 12.7833 1.23667 12.2419 1.008 11.6119C0.779333 10.9819 0.665 10.2889 0.665 9.53292C0.665 8.77692 0.784 8.08392 1.022 7.45392C1.26 6.82392 1.59367 6.28259 2.023 5.82992C2.457 5.37726 2.975 5.02725 3.577 4.77992C4.179 4.52792 4.844 4.40192 5.572 4.40192C6.286 4.40192 6.916 4.51625 7.462 4.74492C8.008 4.97359 8.48867 5.28392 8.904 5.67592L8.456 6.29892C8.428 6.34559 8.39067 6.38525 8.344 6.41792C8.302 6.44592 8.24367 6.45992 8.169 6.45992C8.085 6.45992 7.98233 6.41559 7.861 6.32692C7.73967 6.23359 7.581 6.13092 7.385 6.01892C7.189 5.90692 6.944 5.80659 6.65 5.71792C6.356 5.62459 5.99433 5.57792 5.565 5.57792C5.047 5.57792 4.57333 5.66892 4.144 5.85092C3.71467 6.02825 3.34367 6.28725 3.031 6.62792C2.723 6.96859 2.48267 7.38392 2.31 7.87392C2.13733 8.36392 2.051 8.91692 2.051 9.53292C2.051 10.1583 2.13967 10.7159 2.317 11.2059C2.499 11.6959 2.744 12.1113 3.052 12.4519C3.36467 12.7879 3.731 13.0446 4.151 13.2219C4.57567 13.3993 5.033 13.4879 5.523 13.4879C5.82167 13.4879 6.09 13.4716 6.328 13.4389C6.57067 13.4016 6.79233 13.3456 6.993 13.2709C7.19833 13.1963 7.38733 13.1029 7.56 12.9909C7.73733 12.8743 7.91233 12.7366 8.085 12.5779C8.16433 12.5079 8.24367 12.4729 8.323 12.4729ZM18.7596 4.51392V14.5449H17.4016V9.98092H11.9906V14.5449H10.6326V4.51392H11.9906V8.98692H17.4016V4.51392H18.7596ZM30.592 9.53292C30.592 10.2843 30.473 10.9749 30.235 11.6049C29.997 12.2303 29.661 12.7693 29.227 13.2219C28.793 13.6746 28.2703 14.0269 27.659 14.2789C27.0523 14.5263 26.3803 14.6499 25.643 14.6499C24.9056 14.6499 24.2336 14.5263 23.627 14.2789C23.0203 14.0269 22.5 13.6746 22.066 13.2219C21.632 12.7693 21.296 12.2303 21.058 11.6049C20.82 10.9749 20.701 10.2843 20.701 9.53292C20.701 8.78159 20.82 8.09325 21.058 7.46792C21.296 6.83792 21.632 6.29659 22.066 5.84392C22.5 5.38659 23.0203 5.03192 23.627 4.77992C24.2336 4.52792 24.9056 4.40192 25.643 4.40192C26.3803 4.40192 27.0523 4.52792 27.659 4.77992C28.2703 5.03192 28.793 5.38659 29.227 5.84392C29.661 6.29659 29.997 6.83792 30.235 7.46792C30.473 8.09325 30.592 8.78159 30.592 9.53292ZM29.199 9.53292C29.199 8.91692 29.115 8.36392 28.947 7.87392C28.779 7.38392 28.541 6.97092 28.233 6.63492C27.925 6.29425 27.5516 6.03292 27.113 5.85092C26.6743 5.66892 26.1843 5.57792 25.643 5.57792C25.1063 5.57792 24.6186 5.66892 24.18 5.85092C23.7413 6.03292 23.3656 6.29425 23.053 6.63492C22.745 6.97092 22.507 7.38392 22.339 7.87392C22.171 8.36392 22.087 8.91692 22.087 9.53292C22.087 10.1489 22.171 10.7019 22.339 11.1919C22.507 11.6773 22.745 12.0903 23.053 12.4309C23.3656 12.7669 23.7413 13.0259 24.18 13.2079C24.6186 13.3853 25.1063 13.4739 25.643 13.4739C26.1843 13.4739 26.6743 13.3853 27.113 13.2079C27.5516 13.0259 27.925 12.7669 28.233 12.4309C28.541 12.0903 28.779 11.6773 28.947 11.1919C29.115 10.7019 29.199 10.1489 29.199 9.53292ZM41.8029 9.53292C41.8029 10.2843 41.6839 10.9749 41.4459 11.6049C41.2079 12.2303 40.8719 12.7693 40.4379 13.2219C40.0039 13.6746 39.4812 14.0269 38.8699 14.2789C38.2632 14.5263 37.5912 14.6499 36.8539 14.6499C36.1166 14.6499 35.4446 14.5263 34.8379 14.2789C34.2312 14.0269 33.7109 13.6746 33.2769 13.2219C32.8429 12.7693 32.5069 12.2303 32.2689 11.6049C32.0309 10.9749 31.9119 10.2843 31.9119 9.53292C31.9119 8.78159 32.0309 8.09325 32.2689 7.46792C32.5069 6.83792 32.8429 6.29659 33.2769 5.84392C33.7109 5.38659 34.2312 5.03192 34.8379 4.77992C35.4446 4.52792 36.1166 4.40192 36.8539 4.40192C37.5912 4.40192 38.2632 4.52792 38.8699 4.77992C39.4812 5.03192 40.0039 5.38659 40.4379 5.84392C40.8719 6.29659 41.2079 6.83792 41.4459 7.46792C41.6839 8.09325 41.8029 8.78159 41.8029 9.53292ZM40.4099 9.53292C40.4099 8.91692 40.3259 8.36392 40.1579 7.87392C39.9899 7.38392 39.7519 6.97092 39.4439 6.63492C39.1359 6.29425 38.7626 6.03292 38.3239 5.85092C37.8852 5.66892 37.3952 5.57792 36.8539 5.57792C36.3172 5.57792 35.8296 5.66892 35.3909 5.85092C34.9522 6.03292 34.5766 6.29425 34.2639 6.63492C33.9559 6.97092 33.7179 7.38392 33.5499 7.87392C33.3819 8.36392 33.2979 8.91692 33.2979 9.53292C33.2979 10.1489 33.3819 10.7019 33.5499 11.1919C33.7179 11.6773 33.9559 12.0903 34.2639 12.4309C34.5766 12.7669 34.9522 13.0259 35.3909 13.2079C35.8296 13.3853 36.3172 13.4739 36.8539 13.4739C37.3952 13.4739 37.8852 13.3853 38.3239 13.2079C38.7626 13.0259 39.1359 12.7669 39.4439 12.4309C39.7519 12.0903 39.9899 11.6773 40.1579 11.1919C40.3259 10.7019 40.4099 10.1489 40.4099 9.53292ZM48.8768 6.08192C48.8348 6.15192 48.7882 6.20559 48.7368 6.24292C48.6902 6.27559 48.6318 6.29192 48.5618 6.29192C48.4825 6.29192 48.3892 6.25225 48.2818 6.17292C48.1745 6.09359 48.0392 6.00725 47.8758 5.91392C47.7172 5.81592 47.5235 5.72725 47.2948 5.64792C47.0708 5.56859 46.7978 5.52892 46.4758 5.52892C46.1725 5.52892 45.9042 5.57092 45.6708 5.65492C45.4422 5.73425 45.2485 5.84392 45.0898 5.98392C44.9358 6.12392 44.8192 6.28959 44.7398 6.48092C44.6605 6.66759 44.6208 6.87059 44.6208 7.08992C44.6208 7.36992 44.6885 7.60326 44.8238 7.78992C44.9638 7.97192 45.1458 8.12825 45.3698 8.25892C45.5985 8.38959 45.8552 8.50392 46.1398 8.60192C46.4292 8.69525 46.7232 8.79325 47.0218 8.89592C47.3252 8.99859 47.6192 9.11526 47.9038 9.24592C48.1932 9.37192 48.4498 9.53292 48.6738 9.72892C48.9025 9.92492 49.0845 10.1653 49.2198 10.4499C49.3598 10.7346 49.4298 11.0846 49.4298 11.4999C49.4298 11.9386 49.3552 12.3516 49.2058 12.7389C49.0565 13.1216 48.8372 13.4553 48.5478 13.7399C48.2632 14.0246 47.9108 14.2486 47.4908 14.4119C47.0755 14.5753 46.6018 14.6569 46.0698 14.6569C45.4165 14.6569 44.8238 14.5403 44.2918 14.3069C43.7598 14.0689 43.3048 13.7493 42.9268 13.3479L43.3188 12.7039C43.3562 12.6526 43.4005 12.6106 43.4518 12.5779C43.5078 12.5406 43.5685 12.5219 43.6338 12.5219C43.6945 12.5219 43.7622 12.5476 43.8368 12.5989C43.9162 12.6456 44.0048 12.7063 44.1028 12.7809C44.2008 12.8556 44.3128 12.9373 44.4388 13.0259C44.5648 13.1146 44.7072 13.1963 44.8658 13.2709C45.0292 13.3456 45.2135 13.4086 45.4188 13.4599C45.6242 13.5066 45.8552 13.5299 46.1118 13.5299C46.4338 13.5299 46.7208 13.4856 46.9728 13.3969C47.2248 13.3083 47.4372 13.1846 47.6098 13.0259C47.7872 12.8626 47.9225 12.6689 48.0158 12.4449C48.1092 12.2209 48.1558 11.9713 48.1558 11.6959C48.1558 11.3926 48.0858 11.1453 47.9458 10.9539C47.8105 10.7579 47.6308 10.5946 47.4068 10.4639C47.1828 10.3333 46.9262 10.2236 46.6368 10.1349C46.3475 10.0416 46.0535 9.94826 45.7548 9.85492C45.4562 9.75692 45.1622 9.64492 44.8728 9.51892C44.5835 9.39292 44.3268 9.22959 44.1028 9.02892C43.8788 8.82825 43.6968 8.57859 43.5568 8.27992C43.4215 7.97659 43.3538 7.60325 43.3538 7.15992C43.3538 6.80525 43.4215 6.46225 43.5568 6.13092C43.6968 5.79959 43.8975 5.50559 44.1588 5.24892C44.4248 4.99225 44.7492 4.78692 45.1318 4.63292C45.5192 4.47892 45.9625 4.40192 46.4618 4.40192C47.0218 4.40192 47.5305 4.49059 47.9878 4.66792C48.4498 4.84526 48.8558 5.10192 49.2058 5.43792L48.8768 6.08192ZM57.5354 13.4389L57.5284 14.5449H51.3474V4.51392H57.5284V5.61992H52.7054V8.95192H56.6114V10.0159H52.7054V13.4389H57.5354ZM68.1405 6.08192C68.0985 6.15192 68.0518 6.20559 68.0005 6.24292C67.9538 6.27559 67.8955 6.29192 67.8255 6.29192C67.7462 6.29192 67.6528 6.25225 67.5455 6.17292C67.4382 6.09359 67.3028 6.00725 67.1395 5.91392C66.9808 5.81592 66.7872 5.72725 66.5585 5.64792C66.3345 5.56859 66.0615 5.52892 65.7395 5.52892C65.4362 5.52892 65.1678 5.57092 64.9345 5.65492C64.7058 5.73425 64.5122 5.84392 64.3535 5.98392C64.1995 6.12392 64.0828 6.28959 64.0035 6.48092C63.9242 6.66759 63.8845 6.87059 63.8845 7.08992C63.8845 7.36992 63.9522 7.60326 64.0875 7.78992C64.2275 7.97192 64.4095 8.12825 64.6335 8.25892C64.8622 8.38959 65.1188 8.50392 65.4035 8.60192C65.6928 8.69525 65.9868 8.79325 66.2855 8.89592C66.5888 8.99859 66.8828 9.11526 67.1675 9.24592C67.4568 9.37192 67.7135 9.53292 67.9375 9.72892C68.1662 9.92492 68.3482 10.1653 68.4835 10.4499C68.6235 10.7346 68.6935 11.0846 68.6935 11.4999C68.6935 11.9386 68.6188 12.3516 68.4695 12.7389C68.3202 13.1216 68.1008 13.4553 67.8115 13.7399C67.5268 14.0246 67.1745 14.2486 66.7545 14.4119C66.3392 14.5753 65.8655 14.6569 65.3335 14.6569C64.6802 14.6569 64.0875 14.5403 63.5555 14.3069C63.0235 14.0689 62.5685 13.7493 62.1905 13.3479L62.5825 12.7039C62.6198 12.6526 62.6642 12.6106 62.7155 12.5779C62.7715 12.5406 62.8322 12.5219 62.8975 12.5219C62.9582 12.5219 63.0258 12.5476 63.1005 12.5989C63.1798 12.6456 63.2685 12.7063 63.3665 12.7809C63.4645 12.8556 63.5765 12.9373 63.7025 13.0259C63.8285 13.1146 63.9708 13.1963 64.1295 13.2709C64.2928 13.3456 64.4772 13.4086 64.6825 13.4599C64.8878 13.5066 65.1188 13.5299 65.3755 13.5299C65.6975 13.5299 65.9845 13.4856 66.2365 13.3969C66.4885 13.3083 66.7008 13.1846 66.8735 13.0259C67.0508 12.8626 67.1862 12.6689 67.2795 12.4449C67.3728 12.2209 67.4195 11.9713 67.4195 11.6959C67.4195 11.3926 67.3495 11.1453 67.2095 10.9539C67.0742 10.7579 66.8945 10.5946 66.6705 10.4639C66.4465 10.3333 66.1898 10.2236 65.9005 10.1349C65.6112 10.0416 65.3172 9.94826 65.0185 9.85492C64.7198 9.75692 64.4258 9.64492 64.1365 9.51892C63.8472 9.39292 63.5905 9.22959 63.3665 9.02892C63.1425 8.82825 62.9605 8.57859 62.8205 8.27992C62.6852 7.97659 62.6175 7.60325 62.6175 7.15992C62.6175 6.80525 62.6852 6.46225 62.8205 6.13092C62.9605 5.79959 63.1612 5.50559 63.4225 5.24892C63.6885 4.99225 64.0128 4.78692 64.3955 4.63292C64.7828 4.47892 65.2262 4.40192 65.7255 4.40192C66.2855 4.40192 66.7942 4.49059 67.2515 4.66792C67.7135 4.84526 68.1195 5.10192 68.4695 5.43792L68.1405 6.08192ZM71.9691 14.5449H70.6111V4.51392H71.9691V14.5449ZM81.2269 5.01792C81.2269 5.17192 81.1802 5.32125 81.0869 5.46592L75.4099 13.4389H81.1429V14.5449H73.6249V14.0129C73.6249 13.9383 73.6366 13.8683 73.6599 13.8029C73.6879 13.7376 73.7206 13.6746 73.7579 13.6139L79.4489 5.61992H73.8909V4.51392H81.2269V5.01792ZM89.1448 13.4389L89.1378 14.5449H82.9568V4.51392H89.1378V5.61992H84.3148V8.95192H88.2208V10.0159H84.3148V13.4389H89.1448Z" fill="#6F6E6E"/>
<path d="M104.002 12.6485C103.835 12.6488 103.673 12.5902 103.545 12.4827L99.2581 8.88021C99.1122 8.75791 99.0204 8.58217 99.003 8.39165C98.9856 8.20112 99.0439 8.01143 99.1652 7.86429C99.2865 7.71715 99.4608 7.62462 99.6497 7.60705C99.8386 7.58949 100.027 7.64832 100.173 7.77062L104.002 10.9985L107.832 7.8859C107.905 7.82605 107.989 7.78136 108.079 7.75439C108.169 7.72742 108.264 7.71871 108.358 7.72875C108.451 7.73879 108.542 7.7674 108.625 7.81291C108.707 7.85843 108.78 7.91997 108.839 7.99398C108.904 8.06806 108.954 8.15498 108.985 8.24927C109.015 8.34357 109.026 8.44321 109.017 8.54197C109.007 8.64073 108.978 8.73646 108.93 8.82318C108.882 8.9099 108.817 8.98573 108.739 9.04592L104.452 12.526C104.32 12.6164 104.162 12.6595 104.002 12.6485Z" fill="#6F6E6E"/>
</svg>
