<svg width="91" height="18" viewBox="0 0 91 18" fill="none" xmlns="http://www.w3.org/2000/svg">
<path d="M2.051 9.53292C2.051 10.1489 2.135 10.7019 2.303 11.1919C2.471 11.6773 2.709 12.0903 3.017 12.4309C3.32967 12.7669 3.70533 13.0259 4.144 13.2079C4.58267 13.3853 5.07033 13.4739 5.607 13.4739C6.14833 13.4739 6.63833 13.3853 7.077 13.2079C7.51567 13.0259 7.889 12.7669 8.197 12.4309C8.505 12.0903 8.743 11.6773 8.911 11.1919C9.079 10.7019 9.163 10.1489 9.163 9.53292C9.163 8.91692 9.079 8.36392 8.911 7.87392C8.743 7.38392 8.505 6.97092 8.197 6.63492C7.889 6.29425 7.51567 6.03292 7.077 5.85092C6.63833 5.66892 6.14833 5.57792 5.607 5.57792C5.07033 5.57792 4.58267 5.66892 4.144 5.85092C3.70533 6.03292 3.32967 6.29425 3.017 6.63492C2.709 6.97092 2.471 7.38392 2.303 7.87392C2.135 8.36392 2.051 8.91692 2.051 9.53292ZM11.018 16.6169H9.898C9.73 16.6169 9.58067 16.5936 9.45 16.5469C9.31933 16.5003 9.20033 16.4186 9.093 16.3019L7.336 14.3839C6.804 14.5613 6.22767 14.6499 5.607 14.6499C4.86967 14.6499 4.19767 14.5263 3.591 14.2789C2.98433 14.0269 2.464 13.6746 2.03 13.2219C1.596 12.7693 1.26 12.2303 1.022 11.6049C0.784 10.9749 0.665 10.2843 0.665 9.53292C0.665 8.78159 0.784 8.09325 1.022 7.46792C1.26 6.83792 1.596 6.29659 2.03 5.84392C2.464 5.38659 2.98433 5.03192 3.591 4.77992C4.19767 4.52792 4.86967 4.40192 5.607 4.40192C6.34433 4.40192 7.01633 4.52792 7.623 4.77992C8.23433 5.03192 8.757 5.38659 9.191 5.84392C9.625 6.29659 9.961 6.83792 10.199 7.46792C10.437 8.09325 10.556 8.78159 10.556 9.53292C10.556 10.0043 10.507 10.4523 10.409 10.8769C10.3157 11.3016 10.178 11.6983 9.996 12.0669C9.814 12.4309 9.59233 12.7623 9.331 13.0609C9.06967 13.3596 8.77567 13.6186 8.449 13.8379L11.018 16.6169ZM16.3629 13.4669C16.7783 13.4669 17.1493 13.3969 17.4759 13.2569C17.8026 13.1169 18.0779 12.9209 18.3019 12.6689C18.5306 12.4169 18.7033 12.1159 18.8199 11.7659C18.9413 11.4159 19.0019 11.0309 19.0019 10.6109V4.51392H20.3529V10.6109C20.3529 11.1896 20.2596 11.7263 20.0729 12.2209C19.8909 12.7156 19.6273 13.1449 19.2819 13.5089C18.9413 13.8683 18.5236 14.1506 18.0289 14.3559C17.5343 14.5613 16.9789 14.6639 16.3629 14.6639C15.7469 14.6639 15.1916 14.5613 14.6969 14.3559C14.2023 14.1506 13.7823 13.8683 13.4369 13.5089C13.0916 13.1449 12.8256 12.7156 12.6389 12.2209C12.4569 11.7263 12.3659 11.1896 12.3659 10.6109V4.51392H13.7169V10.6039C13.7169 11.0239 13.7753 11.4089 13.8919 11.7589C14.0133 12.1089 14.1859 12.4099 14.4099 12.6619C14.6386 12.9139 14.9163 13.1123 15.2429 13.2569C15.5743 13.3969 15.9476 13.4669 16.3629 13.4669ZM27.8814 10.8209L26.3064 6.73992C26.2598 6.61859 26.2108 6.47859 26.1594 6.31992C26.1081 6.15659 26.0591 5.98392 26.0124 5.80192C25.9144 6.17992 25.8141 6.49492 25.7114 6.74692L24.1364 10.8209H27.8814ZM30.7094 14.5449H29.6594C29.5381 14.5449 29.4401 14.5146 29.3654 14.4539C29.2908 14.3933 29.2348 14.3163 29.1974 14.2229L28.2594 11.8009H23.7584L22.8204 14.2229C22.7924 14.3069 22.7388 14.3816 22.6594 14.4469C22.5801 14.5123 22.4821 14.5449 22.3654 14.5449H21.3154L25.3264 4.51392H26.6984L30.7094 14.5449ZM40.156 4.51392V14.5449H39.477C39.3697 14.5449 39.2787 14.5263 39.204 14.4889C39.134 14.4516 39.064 14.3886 38.994 14.2999L33.191 6.73992C33.2004 6.85659 33.2074 6.97092 33.212 7.08292C33.2167 7.19492 33.219 7.29992 33.219 7.39792V14.5449H32.029V4.51392H32.729C32.7897 4.51392 32.841 4.51859 32.883 4.52792C32.925 4.53259 32.9624 4.54425 32.995 4.56292C33.0277 4.57692 33.0604 4.60025 33.093 4.63292C33.1257 4.66092 33.1607 4.69825 33.198 4.74492L39.001 12.2979C38.9917 12.1766 38.9824 12.0599 38.973 11.9479C38.9684 11.8313 38.966 11.7216 38.966 11.6189V4.51392H40.156ZM49.5035 5.65492H46.2555V14.5449H44.9045V5.65492H41.6495V4.51392H49.5035V5.65492ZM52.3499 14.5449H50.9919V4.51392H52.3499V14.5449ZM61.6988 5.65492H58.4508V14.5449H57.0998V5.65492H53.8448V4.51392H61.6988V5.65492ZM66.9533 10.5479V14.5449H65.5953V10.5479L61.9203 4.51392H63.1103C63.2316 4.51392 63.3273 4.54425 63.3973 4.60492C63.4673 4.66092 63.5279 4.73559 63.5793 4.82892L65.8753 8.72792C65.9593 8.89125 66.0363 9.04525 66.1063 9.18992C66.1763 9.32992 66.2369 9.47226 66.2883 9.61692C66.3396 9.47226 66.3979 9.32992 66.4633 9.18992C66.5286 9.04525 66.6009 8.89125 66.6803 8.72792L68.9693 4.82892C69.0113 4.74959 69.0696 4.67725 69.1443 4.61192C69.2189 4.54659 69.3146 4.51392 69.4313 4.51392H70.6283L66.9533 10.5479Z" fill="#6F6E6E"/>
<path d="M85.0021 12.6485C84.8352 12.6488 84.6734 12.5902 84.5449 12.4827L80.2581 8.88021C80.1122 8.75791 80.0204 8.58217 80.003 8.39165C79.9856 8.20112 80.0439 8.01143 80.1652 7.86429C80.2865 7.71715 80.4608 7.62462 80.6497 7.60705C80.8386 7.58949 81.0267 7.64832 81.1726 7.77062L85.0021 10.9985L88.8317 7.8859C88.9047 7.82605 88.9888 7.78136 89.0791 7.75439C89.1694 7.72742 89.264 7.71871 89.3576 7.72875C89.4513 7.73879 89.542 7.7674 89.6246 7.81291C89.7072 7.85843 89.7801 7.91997 89.8391 7.99398C89.9045 8.06806 89.954 8.15498 89.9846 8.24927C90.0152 8.34357 90.0261 8.44321 90.0167 8.54197C90.0073 8.64073 89.9778 8.73646 89.9301 8.82318C89.8823 8.9099 89.8172 8.98573 89.739 9.04592L85.4523 12.526C85.32 12.6164 85.1615 12.6595 85.0021 12.6485Z" fill="#6F6E6E"/>
</svg>
